<svg width="32" height="32" viewBox="0 0 32 32" fill="none" xmlns="http://www.w3.org/2000/svg" class="logo_3tn5I"><path d="M0.32 6C0.32 2.86302 2.86302 0.32 6 0.32H26C29.137 0.32 31.68 2.86302 31.68 6V26C31.68 29.137 29.137 31.68 26 31.68H6C2.86302 31.68 0.32 29.137 0.32 26V6Z" stroke="#F8FAFF" stroke-width="0.64"></path><path fill-rule="evenodd" clip-rule="evenodd" d="M8 7.9989H11.2V11.1989H14.4V14.3989H17.6V17.5989L14.4 17.5989V20.7989L11.2 20.7989V23.9989H8V20.7989V17.5989L11.2 17.5989V14.3989H8V11.1989V7.9989ZM17.6 20.7989V17.5989L20.8 17.5989V20.7989L17.6 20.7989ZM20.8 20.7989H24V23.9989H20.8V20.7989ZM17.6 20.7989L14.4 20.7989V23.9989H17.6L17.6 20.7989ZM20.8 17.5989L20.8 14.3989H17.6L17.6 11.1989H14.4V7.9989H17.6H20.8V11.1989H24V14.3989V17.5989H20.8Z" fill="white"></path></svg>